<?xml version="1.0" standalone="no"?><!DOCTYPE svg PUBLIC "-//W3C//DTD SVG 1.1//EN" "http://www.w3.org/Graphics/SVG/1.1/DTD/svg11.dtd"><svg class="icon" width="200px" height="200.00px" viewBox="0 0 1024 1024" version="1.1" xmlns="http://www.w3.org/2000/svg"><path d="M512.8 51.6l-400 231-0.8 460.4 399.2 229.4 400-231 0.8-460.4L512.8 51.6z" fill="#222222" /><path d="M728.6 528c0-3.2-2.4-8.2-6.6-13-4-5-9-9-14.8-13.8-5.6-4.2-11.6-8.2-18-11.4-6.6-2.4-11.4-4-16.4-4-5 1.6-10.6 3.2-17.2 5-5.6 2-11.4 3.6-17.2 5-6.6 1.6-14.8 4-24.6 6.6-10.2 3.4-20.6 5.8-31 7.4-10.4 2.8-21.2 5-31.8 6.6-8.6 2-17.4 3.2-26.2 3.2h-27.8c-2.4 0-5 1.6-8.2 3.2-3.4 1.8-6.8 4-9.8 6.6-3.2 3.2-6.6 5.8-8.2 8.2-1.8 2.4-3 5.2-3.2 8.2 0 11.4 4 19.6 13 25.4 8.2 6.6 18.8 9 31 9 4.2 0 8.2-0.2 12.2-0.8 4.2-0.2 8.4-1 12.2-2.4 10.8-1.8 21.4-4.4 31.8-7.4 8.2-1.6 16.4-3.2 24.6-5.8 7.4-1.6 14.8-3.4 22-5.8 1.6 1.6 5 2.4 9 4 3.2 1.6 5 4 6.6 5.8 0 5.8-2.4 13-5.8 21.2-1.6 5-4 8.2-5.8 11.4-1.6 3-3 6-4 9-6.8 14.2-14.8 27.8-23.8 40.8-9.8 13.6-21 26.2-33.6 37.6-13 11.4-26.2 21.2-40.8 27.8-14 7.6-29.8 11.6-45.8 11.4-34.4 0-59.6-10.6-76-33.6-17.2-22-25.4-53.2-25.4-94-0.2-39 3.2-77.8 9.8-116 6.6-36 18-72.8 34.4-110.4 4-9.8 10.6-20.4 18.8-31.8 7.6-12 16.6-23 27-32.8 10-10 21.6-18.2 34.4-24.6 12.2-6.6 25.4-10.6 39.2-10.6 19.6 0 35.2 5 46.6 13 10.6 9 19.6 17.2 27.8 25.4l12.2 14.8c3.4 5.6 7.8 10.6 13 14.8 6.6 8.2 15.6 12.2 27 12.2 8.4 0.2 16.6-2.8 22.8-8.2 5.8-5 9-12.2 9-21.2 0-3.2-0.8-6.2-2.4-9-1.6-3.2-2.4-5.8-4-9-16.4-26.2-39.2-48-66.2-63-28.6-14.8-58-22.8-89.2-22.8-24.4 0-48.2 6.2-69.4 18-21.4 13.4-40.8 29.8-57.2 49-18 19.6-32.8 42.6-45.8 67-13.4 25.2-25 51.4-34.4 78.4-9.2 25-16.2 50.8-21.2 76.8-4.2 22-6.4 44.6-6.6 67 0 29.4 1.6 58 6.6 85s15.6 50.6 32.8 70.4c13 16.4 31.8 29.4 54.8 39.2s50.6 14.8 83.4 14.8c17.8 0 35.4-4 51.6-11.4 17.2-6.6 33.6-17.2 49.8-30.2 16.4-13.6 31.2-29 44.2-45.8 13.4-17.6 24.8-36.4 34.4-56.4-1.8 12.4-2.6 25-2.4 37.6-1.4 13.6-1.8 27.2-1.6 40.8 0 17.2 0.8 31 4 41.6 2.4 11.4 5.8 19.6 10.6 25.4 2.8 5.6 7.4 10.2 13 13 5 2.4 9 4 13.8 4 8.2 0.2 16.4-2.4 22.8-7.4 6-5.8 9.4-13.8 9-22 0-1.6-0.8-4-0.8-7.4l-2.4-9.8-3.2-11.4-2.4-9.8c-3.4-14-5.8-28.2-7.4-42.6-1.6-14.8-1.6-28.6-1.6-43.4-0.2-9.2 0.2-18.6 1.6-27.8l5-41.8v-14.8c0-1.6 0.8-5 3.2-9.8l6.6-9c1.6-3.2 4-6.6 5.8-9.8 2-2.8 2.8-6.2 2.8-9.6z" fill="#FFFFFF" /></svg>