<?xml version="1.0" standalone="no"?><!DOCTYPE svg PUBLIC "-//W3C//DTD SVG 1.1//EN" "http://www.w3.org/Graphics/SVG/1.1/DTD/svg11.dtd"><svg class="icon" width="200px" height="159.25px" viewBox="0 0 1286 1024" version="1.1" xmlns="http://www.w3.org/2000/svg"><path d="M713.847829 670.26107a184.427597 184.427597 0 0 1-130.900404 0l-229.730439-87.711082-88.354327-33.954159v304.806347a54.032599 54.032599 0 0 0 35.47038 50.540697l283.119793 108.203036a184.427597 184.427597 0 0 0 130.900404 0l274.068414-104.389511a54.629898 54.629898 0 0 0 35.47038-50.540697v-304.806346l-79.302948 30.094687z m245.030487 154.332909a22.513583 22.513583 0 0 1-16.770322 24.948726l-255.368356 98.600304a114.543597 114.543597 0 0 1-79.946193 0l-257.298092-97.957059c-12.910851-5.145962-15.483832-14.105449-15.483832-28.164952v-177.995144l132.83014 49.300152 139.308538 53.159624a114.589543 114.589543 0 0 0 79.946193 0l139.308539-53.159624 132.83014-49.300152v180.568125z"  /><path d="M1251.830572 219.529948L709.115382 12.037416a183.370837 183.370837 0 0 0-130.532835 0L35.270058 219.529948a54.400168 54.400168 0 0 0 0 101.816531l542.71519 207.446586a183.370837 183.370837 0 0 0 130.532835 0l412.825599-158.146434 12.864905-5.100016v280.271136a34.505512 34.505512 0 0 0 34.735242 34.597404h10.291924a34.505512 34.505512 0 0 0 34.735242-34.597404V334.624898l37.951469-14.748694a53.756923 53.756923 0 0 0 0-100.53004zM692.436952 450.684716a153.230203 153.230203 0 0 1-104.159781 0l-457.163574-167.749167c-22.973044-7.672997-29.589281-20.491955 0-31.381178l463.596027-168.392411a135.403121 135.403121 0 0 1 97.727328 0l463.596027 168.392411c28.946035 9.602732 28.946035 21.1352-6.432453 33.954159z"  /></svg>