<?xml version="1.0" encoding="utf-8"?>
<!-- Generator: Adobe Illustrator 24.0.0, SVG Export Plug-In . SVG Version: 6.00 Build 0)  -->
<svg version="1.1" id="图层_1" xmlns:bx="https://boxy-svg.com"
	 xmlns="http://www.w3.org/2000/svg" xmlns:xlink="http://www.w3.org/1999/xlink" x="0px" y="0px" viewBox="0 0 734 847.9"
	 style="enable-background:new 0 0 734 847.9;" xml:space="preserve">
<style type="text/css">
	.st0{fill:#00C4A7;}
</style>
<g>
	<defs>
		<polygon id="SVGID_1_" points="369.2,6.8 727.9,213.9 727.9,636 369.2,844.4 2.4,636 2.4,213.9 		"/>
	</defs>
	<clipPath id="SVGID_2_">
		<use xlink:href="#SVGID_1_"  style="overflow:visible;"/>
	</clipPath>
</g>
<g>
	<defs>
		<path id="SVGID_3_" d="M708.9,625.3L371.2,821.1L32.7,626.5L32,236L369.8,40.2l0,0l338.5,194.6L708.9,625.3z"/>
	</defs>
	<clipPath id="SVGID_4_">
		<use xlink:href="#SVGID_3_"  style="overflow:visible;"/>
	</clipPath>
	<g transform="matrix(1 0 0 1 0 0)" style="clip-path:url(#SVGID_4_);">
		
			<image style="overflow:visible;" width="860" height="1203" xlink:href="../../../Volumes/LaCie/文件夹/入职材料/IMG_7995.png"  transform="matrix(0.6651 0 0 0.6651 80.4174 49.2307)">
		</image>
	</g>
</g>
<path class="st0" d="M705.3,195.6L427.5,35.2L367.1,0.4l-60.3,34.8L29,195.6l-29.3,16.9v424.2L29,653.7l281.3,162.4l56.9,32.8
	l56.8-32.8l281.3-162.4l29.3-16.9V212.5L705.3,195.6z M705.3,620.9L367.1,816.1L29,620.9V230.4L367.1,35.2l0,0l338.1,195.2V620.9z"
	/>
</svg>
